<svg xmlns="http://www.w3.org/2000/svg" viewBox="0 0 800 450" width="800" height="450" role="img" aria-label="Branching network and a straight line on a log-log plot, the two ideas at the centre of Scale"><rect width="800" height="450" fill="#F6EECC"/><line x1="250.0" y1="400.0" x2="250.0" y2="304.0" stroke="#157A45" stroke-width="13.0" stroke-linecap="round"/><line x1="250.0" y1="304.0" x2="283.1" y2="243.3" stroke="#0E6E66" stroke-width="8.8" stroke-linecap="round"/><line x1="283.1" y1="243.3" x2="325.0" y2="216.5" stroke="#157A45" stroke-width="6.0" stroke-linecap="round"/><line x1="325.0" y1="216.5" x2="360.8" y2="213.9" stroke="#0E6E66" stroke-width="4.1" stroke-linecap="round"/><line x1="360.8" y1="213.9" x2="384.2" y2="224.7" stroke="#157A45" stroke-width="2.8" stroke-linecap="round"/><line x1="360.8" y1="213.9" x2="382.5" y2="200.0" stroke="#157A45" stroke-width="2.8" stroke-linecap="round"/><line x1="325.0" y1="216.5" x2="342.2" y2="185.0" stroke="#0E6E66" stroke-width="4.1" stroke-linecap="round"/><line x1="342.2" y1="185.0" x2="363.9" y2="171.1" stroke="#157A45" stroke-width="2.8" stroke-linecap="round"/><line x1="342.2" y1="185.0" x2="342.2" y2="159.2" stroke="#157A45" stroke-width="2.8" stroke-linecap="round"/><line x1="283.1" y1="243.3" x2="283.1" y2="193.6" stroke="#157A45" stroke-width="6.0" stroke-linecap="round"/><line x1="283.1" y1="193.6" x2="300.3" y2="162.1" stroke="#0E6E66" stroke-width="4.1" stroke-linecap="round"/><line x1="300.3" y1="162.1" x2="322.0" y2="148.2" stroke="#157A45" stroke-width="2.8" stroke-linecap="round"/><line x1="300.3" y1="162.1" x2="300.3" y2="136.3" stroke="#157A45" stroke-width="2.8" stroke-linecap="round"/><line x1="283.1" y1="193.6" x2="266.0" y2="162.1" stroke="#0E6E66" stroke-width="4.1" stroke-linecap="round"/><line x1="266.0" y1="162.1" x2="266.0" y2="136.3" stroke="#157A45" stroke-width="2.8" stroke-linecap="round"/><line x1="266.0" y1="162.1" x2="244.3" y2="148.2" stroke="#157A45" stroke-width="2.8" stroke-linecap="round"/><line x1="250.0" y1="304.0" x2="216.9" y2="243.3" stroke="#0E6E66" stroke-width="8.8" stroke-linecap="round"/><line x1="216.9" y1="243.3" x2="216.9" y2="193.6" stroke="#157A45" stroke-width="6.0" stroke-linecap="round"/><line x1="216.9" y1="193.6" x2="234.0" y2="162.1" stroke="#0E6E66" stroke-width="4.1" stroke-linecap="round"/><line x1="234.0" y1="162.1" x2="255.7" y2="148.2" stroke="#157A45" stroke-width="2.8" stroke-linecap="round"/><line x1="234.0" y1="162.1" x2="234.0" y2="136.3" stroke="#157A45" stroke-width="2.8" stroke-linecap="round"/><line x1="216.9" y1="193.6" x2="199.7" y2="162.1" stroke="#0E6E66" stroke-width="4.1" stroke-linecap="round"/><line x1="199.7" y1="162.1" x2="199.7" y2="136.3" stroke="#157A45" stroke-width="2.8" stroke-linecap="round"/><line x1="199.7" y1="162.1" x2="178.0" y2="148.2" stroke="#157A45" stroke-width="2.8" stroke-linecap="round"/><line x1="216.9" y1="243.3" x2="175.0" y2="216.5" stroke="#157A45" stroke-width="6.0" stroke-linecap="round"/><line x1="175.0" y1="216.5" x2="157.8" y2="185.0" stroke="#0E6E66" stroke-width="4.1" stroke-linecap="round"/><line x1="157.8" y1="185.0" x2="157.8" y2="159.2" stroke="#157A45" stroke-width="2.8" stroke-linecap="round"/><line x1="157.8" y1="185.0" x2="136.1" y2="171.1" stroke="#157A45" stroke-width="2.8" stroke-linecap="round"/><line x1="175.0" y1="216.5" x2="139.2" y2="213.9" stroke="#0E6E66" stroke-width="4.1" stroke-linecap="round"/><line x1="139.2" y1="213.9" x2="117.5" y2="200.0" stroke="#157A45" stroke-width="2.8" stroke-linecap="round"/><line x1="139.2" y1="213.9" x2="115.8" y2="224.7" stroke="#157A45" stroke-width="2.8" stroke-linecap="round"/><circle cx="250.0" cy="304.0" r="13.5" fill="#836400" stroke="#1B2220" stroke-width="2.5"/><circle cx="283.1" cy="243.3" r="12.0" fill="#836400" stroke="#1B2220" stroke-width="2.5"/><circle cx="325.0" cy="216.5" r="10.5" fill="#FFFFFF" stroke="#1B2220" stroke-width="2.5"/><circle cx="360.8" cy="213.9" r="8.8" fill="#FFFFFF" stroke="#1B2220" stroke-width="2.5"/><circle cx="384.2" cy="224.7" r="7.0" fill="#FFFFFF" stroke="#1B2220" stroke-width="2.5"/><circle cx="384.2" cy="224.7" r="5.0" fill="#FFFFFF" stroke="#1B2220" stroke-width="2.5"/><circle cx="384.2" cy="224.7" r="5.0" fill="#FFFFFF" stroke="#1B2220" stroke-width="2.5"/><circle cx="382.5" cy="200.0" r="7.0" fill="#FFFFFF" stroke="#1B2220" stroke-width="2.5"/><circle cx="382.5" cy="200.0" r="5.0" fill="#FFFFFF" stroke="#1B2220" stroke-width="2.5"/><circle cx="382.5" cy="200.0" r="5.0" fill="#FFFFFF" stroke="#1B2220" stroke-width="2.5"/><circle cx="342.2" cy="185.0" r="8.8" fill="#FFFFFF" stroke="#1B2220" stroke-width="2.5"/><circle cx="363.9" cy="171.1" r="7.0" fill="#FFFFFF" stroke="#1B2220" stroke-width="2.5"/><circle cx="363.9" cy="171.1" r="5.0" fill="#FFFFFF" stroke="#1B2220" stroke-width="2.5"/><circle cx="363.9" cy="171.1" r="5.0" fill="#FFFFFF" stroke="#1B2220" stroke-width="2.5"/><circle cx="342.2" cy="159.2" r="7.0" fill="#FFFFFF" stroke="#1B2220" stroke-width="2.5"/><circle cx="342.2" cy="159.2" r="5.0" fill="#FFFFFF" stroke="#1B2220" stroke-width="2.5"/><circle cx="342.2" cy="159.2" r="5.0" fill="#FFFFFF" stroke="#1B2220" stroke-width="2.5"/><circle cx="283.1" cy="193.6" r="10.5" fill="#FFFFFF" stroke="#1B2220" stroke-width="2.5"/><circle cx="300.3" cy="162.1" r="8.8" fill="#FFFFFF" stroke="#1B2220" stroke-width="2.5"/><circle cx="322.0" cy="148.2" r="7.0" fill="#FFFFFF" stroke="#1B2220" stroke-width="2.5"/><circle cx="322.0" cy="148.2" r="5.0" fill="#FFFFFF" stroke="#1B2220" stroke-width="2.5"/><circle cx="322.0" cy="148.2" r="5.0" fill="#FFFFFF" stroke="#1B2220" stroke-width="2.5"/><circle cx="300.3" cy="136.3" r="7.0" fill="#FFFFFF" stroke="#1B2220" stroke-width="2.5"/><circle cx="300.3" cy="136.3" r="5.0" fill="#FFFFFF" stroke="#1B2220" stroke-width="2.5"/><circle cx="300.3" cy="136.3" r="5.0" fill="#FFFFFF" stroke="#1B2220" stroke-width="2.5"/><circle cx="266.0" cy="162.1" r="8.8" fill="#FFFFFF" stroke="#1B2220" stroke-width="2.5"/><circle cx="266.0" cy="136.3" r="7.0" fill="#FFFFFF" stroke="#1B2220" stroke-width="2.5"/><circle cx="266.0" cy="136.3" r="5.0" fill="#FFFFFF" stroke="#1B2220" stroke-width="2.5"/><circle cx="266.0" cy="136.3" r="5.0" fill="#FFFFFF" stroke="#1B2220" stroke-width="2.5"/><circle cx="244.3" cy="148.2" r="7.0" fill="#FFFFFF" stroke="#1B2220" stroke-width="2.5"/><circle cx="244.3" cy="148.2" r="5.0" fill="#FFFFFF" stroke="#1B2220" stroke-width="2.5"/><circle cx="244.3" cy="148.2" r="5.0" fill="#FFFFFF" stroke="#1B2220" stroke-width="2.5"/><circle cx="216.9" cy="243.3" r="12.0" fill="#836400" stroke="#1B2220" stroke-width="2.5"/><circle cx="216.9" cy="193.6" r="10.5" fill="#FFFFFF" stroke="#1B2220" stroke-width="2.5"/><circle cx="234.0" cy="162.1" r="8.8" fill="#FFFFFF" stroke="#1B2220" stroke-width="2.5"/><circle cx="255.7" cy="148.2" r="7.0" fill="#FFFFFF" stroke="#1B2220" stroke-width="2.5"/><circle cx="255.7" cy="148.2" r="5.0" fill="#FFFFFF" stroke="#1B2220" stroke-width="2.5"/><circle cx="255.7" cy="148.2" r="5.0" fill="#FFFFFF" stroke="#1B2220" stroke-width="2.5"/><circle cx="234.0" cy="136.3" r="7.0" fill="#FFFFFF" stroke="#1B2220" stroke-width="2.5"/><circle cx="234.0" cy="136.3" r="5.0" fill="#FFFFFF" stroke="#1B2220" stroke-width="2.5"/><circle cx="234.0" cy="136.3" r="5.0" fill="#FFFFFF" stroke="#1B2220" stroke-width="2.5"/><circle cx="199.7" cy="162.1" r="8.8" fill="#FFFFFF" stroke="#1B2220" stroke-width="2.5"/><circle cx="199.7" cy="136.3" r="7.0" fill="#FFFFFF" stroke="#1B2220" stroke-width="2.5"/><circle cx="199.7" cy="136.3" r="5.0" fill="#FFFFFF" stroke="#1B2220" stroke-width="2.5"/><circle cx="199.7" cy="136.3" r="5.0" fill="#FFFFFF" stroke="#1B2220" stroke-width="2.5"/><circle cx="178.0" cy="148.2" r="7.0" fill="#FFFFFF" stroke="#1B2220" stroke-width="2.5"/><circle cx="178.0" cy="148.2" r="5.0" fill="#FFFFFF" stroke="#1B2220" stroke-width="2.5"/><circle cx="178.0" cy="148.2" r="5.0" fill="#FFFFFF" stroke="#1B2220" stroke-width="2.5"/><circle cx="175.0" cy="216.5" r="10.5" fill="#FFFFFF" stroke="#1B2220" stroke-width="2.5"/><circle cx="157.8" cy="185.0" r="8.8" fill="#FFFFFF" stroke="#1B2220" stroke-width="2.5"/><circle cx="157.8" cy="159.2" r="7.0" fill="#FFFFFF" stroke="#1B2220" stroke-width="2.5"/><circle cx="157.8" cy="159.2" r="5.0" fill="#FFFFFF" stroke="#1B2220" stroke-width="2.5"/><circle cx="157.8" cy="159.2" r="5.0" fill="#FFFFFF" stroke="#1B2220" stroke-width="2.5"/><circle cx="136.1" cy="171.1" r="7.0" fill="#FFFFFF" stroke="#1B2220" stroke-width="2.5"/><circle cx="136.1" cy="171.1" r="5.0" fill="#FFFFFF" stroke="#1B2220" stroke-width="2.5"/><circle cx="136.1" cy="171.1" r="5.0" fill="#FFFFFF" stroke="#1B2220" stroke-width="2.5"/><circle cx="139.2" cy="213.9" r="8.8" fill="#FFFFFF" stroke="#1B2220" stroke-width="2.5"/><circle cx="117.5" cy="200.0" r="7.0" fill="#FFFFFF" stroke="#1B2220" stroke-width="2.5"/><circle cx="117.5" cy="200.0" r="5.0" fill="#FFFFFF" stroke="#1B2220" stroke-width="2.5"/><circle cx="117.5" cy="200.0" r="5.0" fill="#FFFFFF" stroke="#1B2220" stroke-width="2.5"/><circle cx="115.8" cy="224.7" r="7.0" fill="#FFFFFF" stroke="#1B2220" stroke-width="2.5"/><circle cx="115.8" cy="224.7" r="5.0" fill="#FFFFFF" stroke="#1B2220" stroke-width="2.5"/><circle cx="115.8" cy="224.7" r="5.0" fill="#FFFFFF" stroke="#1B2220" stroke-width="2.5"/><rect x="500" y="110" width="235" height="250" fill="#FFFFFF" stroke="#1B2220" stroke-width="2.5" rx="10"/><line x1="558.8" y1="110" x2="558.8" y2="360" stroke="#1B2220" stroke-width="1" opacity=".16"/><line x1="500" y1="172.5" x2="735" y2="172.5" stroke="#1B2220" stroke-width="1" opacity=".16"/><line x1="617.5" y1="110" x2="617.5" y2="360" stroke="#1B2220" stroke-width="1" opacity=".16"/><line x1="500" y1="235.0" x2="735" y2="235.0" stroke="#1B2220" stroke-width="1" opacity=".16"/><line x1="676.2" y1="110" x2="676.2" y2="360" stroke="#1B2220" stroke-width="1" opacity=".16"/><line x1="500" y1="297.5" x2="735" y2="297.5" stroke="#1B2220" stroke-width="1" opacity=".16"/><line x1="518.0" y1="344.0" x2="717.0" y2="194.8" stroke="#C0271C" stroke-width="5.0" stroke-linecap="round"/><circle cx="529.9" cy="331.9" r="6.0" fill="#C0271C" stroke="#1B2220" stroke-width="2.5"/><circle cx="557.8" cy="307.9" r="6.0" fill="#C0271C" stroke="#1B2220" stroke-width="2.5"/><circle cx="585.7" cy="296.0" r="6.0" fill="#C0271C" stroke="#1B2220" stroke-width="2.5"/><circle cx="611.5" cy="266.2" r="6.0" fill="#C0271C" stroke="#1B2220" stroke-width="2.5"/><circle cx="641.4" cy="252.1" r="6.0" fill="#C0271C" stroke="#1B2220" stroke-width="2.5"/><circle cx="667.2" cy="229.6" r="6.0" fill="#C0271C" stroke="#1B2220" stroke-width="2.5"/><circle cx="697.1" cy="201.7" r="6.0" fill="#C0271C" stroke="#1B2220" stroke-width="2.5"/></svg>